<?xml version="1.0" encoding="utf-8"?>
<!-- Generator: Adobe Illustrator 16.0.4, SVG Export Plug-In . SVG Version: 6.00 Build 0)  -->
<!DOCTYPE svg PUBLIC "-//W3C//DTD SVG 1.1//EN" "http://www.w3.org/Graphics/SVG/1.1/DTD/svg11.dtd">
<svg version="1.1"
	 id="レイヤー_1" xmlns:dc="http://purl.org/dc/elements/1.1/" xmlns:cc="http://creativecommons.org/ns#" xmlns:rdf="http://www.w3.org/1999/02/22-rdf-syntax-ns#" xmlns:svg="http://www.w3.org/2000/svg" xmlns:sodipodi="http://sodipodi.sourceforge.net/DTD/sodipodi-0.dtd" xmlns:inkscape="http://www.inkscape.org/namespaces/inkscape"
	 xmlns="http://www.w3.org/2000/svg" xmlns:xlink="http://www.w3.org/1999/xlink" x="0px" y="0px" width="34.341px"
	 height="29.521px" viewBox="502.501 310.792 34.341 29.521" enable-background="new 502.501 310.792 34.341 29.521"
	 xml:space="preserve">
<path fill="#00A9BD" d="M536.842,337c0,1.83-1.483,3.312-3.312,3.312h-27.716c-1.829,0-3.313-1.482-3.313-3.312l0,0
	c0-1.829,1.484-3.312,3.313-3.312h27.716C535.357,333.687,536.842,335.171,536.842,337L536.842,337z"/>
<path fill="#00A9BD" d="M536.842,325.552c0,1.83-1.483,3.314-3.312,3.314h-27.716c-1.829,0-3.313-1.484-3.313-3.314l0,0
	c0-1.83,1.484-3.312,3.313-3.312h27.716C535.357,322.239,536.842,323.722,536.842,325.552L536.842,325.552z"/>
<path fill="#00A9BD" d="M536.842,314.105c0,1.829-1.483,3.312-3.312,3.312h-27.716c-1.829,0-3.313-1.483-3.313-3.312l0,0
	c0-1.829,1.484-3.313,3.313-3.313h27.716C535.357,310.792,536.842,312.276,536.842,314.105L536.842,314.105z"/>
</svg>
