<?xml version="1.0" encoding="utf-8"?>
<!-- Generator: Adobe Illustrator 16.0.4, SVG Export Plug-In . SVG Version: 6.00 Build 0)  -->
<!DOCTYPE svg PUBLIC "-//W3C//DTD SVG 1.1//EN" "http://www.w3.org/Graphics/SVG/1.1/DTD/svg11.dtd">
<svg version="1.1" id="編集モード" xmlns="http://www.w3.org/2000/svg" xmlns:xlink="http://www.w3.org/1999/xlink" x="0px"
	 y="0px" width="21px" height="21.964px" viewBox="285.12 23.007 21 21.964" enable-background="new 285.12 23.007 21 21.964"
	 xml:space="preserve">
<path fill="#FFFFFF" d="M304.381,39.643c-2.366-1.768-4.649-2.91-5.14-3.155c-0.054-0.027-0.107-0.108-0.107-0.163v-1.55
	c0.353-0.59,0.538-1.22,0.654-1.821c0.227-0.032,0.535-0.372,0.857-1.523c0.051-0.178,0.087-0.336,0.114-0.482
	c0.276-1.092,0.066-1.476-0.227-1.564c0.854-4.475-1.329-4.642-1.329-4.642s-0.354-0.68-1.25-1.169
	c-0.6-0.354-1.441-0.653-2.556-0.543c-0.381,0-0.707,0.082-1.034,0.189c-0.407,0.136-0.787,0.327-1.114,0.571
	c-0.407,0.272-0.788,0.571-1.143,0.952c-0.542,0.544-1.032,1.277-1.251,2.175c-0.189,0.76-0.189,1.604,0.109,2.446
	c-0.407-0.055-0.896,0.19-0.435,1.794c0.325,1.169,0.626,1.496,0.87,1.523c0.108,0.68,0.3,1.414,0.706,2.094v1.55
	c0,0.054-0.054,0.136-0.107,0.163c-0.49,0.245-2.773,1.387-5.14,3.154c-1.087,0.815-1.74,2.121-1.74,3.48v1.061
	c0,0.435,0.354,0.789,0.789,0.789h6.372h6.679h6.372c0.436,0,0.788-0.354,0.788-0.788v-1.061
	C306.12,41.763,305.468,40.458,304.381,39.643z M291.656,32.899c0.001,0.006,0.004,0.013,0.005,0.019
	C291.646,32.917,291.64,32.912,291.656,32.899z"/>
</svg>
