<?xml version="1.0" encoding="utf-8"?>
<!-- Generator: Adobe Illustrator 16.0.4, SVG Export Plug-In . SVG Version: 6.00 Build 0)  -->
<!DOCTYPE svg PUBLIC "-//W3C//DTD SVG 1.1//EN" "http://www.w3.org/Graphics/SVG/1.1/DTD/svg11.dtd">
<svg version="1.1" id="編集モード" xmlns="http://www.w3.org/2000/svg" xmlns:xlink="http://www.w3.org/1999/xlink" x="0px"
	 y="0px" width="21px" height="21.964px" viewBox="447.629 192.448 21 21.964" enable-background="new 447.629 192.448 21 21.964"
	 xml:space="preserve">
<path fill="#00A9BD" d="M466.89,209.083c-2.366-1.768-4.649-2.909-5.139-3.154c-0.055-0.026-0.109-0.108-0.109-0.163v-1.55
	c0.354-0.589,0.544-1.22,0.659-1.82c0.226-0.035,0.532-0.379,0.854-1.523c0.041-0.146,0.074-0.28,0.101-0.404
	c0.311-1.156,0.092-1.552-0.207-1.646c0.857-4.481-1.335-4.639-1.335-4.639s-0.353-0.68-1.25-1.17
	c-0.599-0.353-1.441-0.652-2.556-0.543c-0.381,0-0.707,0.081-1.033,0.19c-0.408,0.136-0.789,0.326-1.115,0.57
	c-0.407,0.272-0.788,0.571-1.142,0.952c-0.544,0.544-1.033,1.277-1.251,2.175c-0.19,0.762-0.19,1.604,0.108,2.447
	c-0.407-0.055-0.896,0.19-0.435,1.794c0.326,1.17,0.625,1.496,0.87,1.523c0.108,0.68,0.299,1.413,0.707,2.093v1.55
	c0,0.055-0.055,0.137-0.109,0.163c-0.489,0.245-2.772,1.387-5.139,3.154c-1.087,0.815-1.74,2.121-1.74,3.48v1.06
	c0,0.436,0.354,0.789,0.789,0.789h6.372l0,0h13.051c0.436,0,0.788-0.354,0.788-0.788v-1.061
	C468.629,211.204,467.977,209.898,466.89,209.083z M454.165,202.339c0.001,0.008,0.002,0.015,0.003,0.021
	C454.15,202.361,454.147,202.353,454.165,202.339z"/>
</svg>
