<?xml version="1.0" encoding="utf-8"?>
<!-- Generator: Adobe Illustrator 16.0.4, SVG Export Plug-In . SVG Version: 6.00 Build 0)  -->
<!DOCTYPE svg PUBLIC "-//W3C//DTD SVG 1.1//EN" "http://www.w3.org/Graphics/SVG/1.1/DTD/svg11.dtd">
<svg version="1.1" id="レイヤー_1" xmlns="http://www.w3.org/2000/svg" xmlns:xlink="http://www.w3.org/1999/xlink" x="0px"
	 y="0px" width="20px" height="20px" viewBox="470 214 20 20" enable-background="new 470 214 20 20" xml:space="preserve">
<g>
	<g>
		<path fill="#7B7B7B" d="M483.846,222.461c0-1.482-0.526-2.75-1.58-3.804s-2.322-1.58-3.804-1.58s-2.75,0.526-3.804,1.58
			s-1.58,2.322-1.58,3.804s0.526,2.75,1.58,3.804s2.322,1.581,3.804,1.581s2.75-0.527,3.804-1.581S483.846,223.944,483.846,222.461
			L483.846,222.461L483.846,222.461z M490,232.461c0,0.417-0.152,0.777-0.457,1.082c-0.305,0.304-0.665,0.457-1.081,0.457
			c-0.433,0-0.794-0.152-1.082-0.457l-4.123-4.111c-1.434,0.994-3.032,1.49-4.795,1.49c-1.146,0-2.242-0.222-3.287-0.667
			c-1.046-0.444-1.947-1.045-2.705-1.803c-0.757-0.757-1.358-1.659-1.803-2.704c-0.445-1.046-0.667-2.142-0.667-3.288
			c0-1.146,0.222-2.242,0.667-3.287c0.445-1.046,1.046-1.947,1.803-2.705c0.757-0.757,1.659-1.358,2.705-1.803
			c1.045-0.445,2.142-0.667,3.287-0.667c1.146,0,2.242,0.222,3.288,0.667s1.947,1.046,2.704,1.803
			c0.757,0.757,1.358,1.659,1.803,2.705c0.445,1.045,0.667,2.142,0.667,3.287c0,1.763-0.497,3.361-1.49,4.796l4.123,4.123
			C489.852,231.676,490,232.037,490,232.461L490,232.461L490,232.461z"/>
	</g>
</g>
</svg>
