<?xml version="1.0" encoding="utf-8"?>
<!-- Generator: Adobe Illustrator 16.0.4, SVG Export Plug-In . SVG Version: 6.00 Build 0)  -->
<!DOCTYPE svg PUBLIC "-//W3C//DTD SVG 1.1//EN" "http://www.w3.org/Graphics/SVG/1.1/DTD/svg11.dtd">
<svg version="1.1" id="レイヤー_1" xmlns="http://www.w3.org/2000/svg" xmlns:xlink="http://www.w3.org/1999/xlink" x="0px"
	 y="0px" width="28.083px" height="28.086px" viewBox="470 205.914 28.083 28.086"
	 enable-background="new 470 205.914 28.083 28.086" xml:space="preserve">
<g>
	<g>
		<path fill="#00A9BD" d="M489.44,217.797c0-2.081-0.736-3.861-2.218-5.341c-1.48-1.479-3.26-2.219-5.342-2.219
			c-2.079,0-3.86,0.739-5.34,2.219s-2.219,3.26-2.219,5.341c0,2.082,0.739,3.862,2.219,5.343c1.479,1.479,3.261,2.22,5.34,2.22
			c2.082,0,3.861-0.741,5.342-2.22C488.704,221.659,489.44,219.879,489.44,217.797L489.44,217.797L489.44,217.797z M498.083,231.839
			c0,0.586-0.214,1.092-0.643,1.52c-0.427,0.428-0.933,0.642-1.518,0.642c-0.607,0-1.115-0.214-1.52-0.642l-5.789-5.773
			c-2.014,1.396-4.258,2.093-6.733,2.093c-1.607,0-3.147-0.311-4.615-0.937c-1.469-0.624-2.732-1.468-3.798-2.531
			c-1.063-1.063-1.906-2.33-2.532-3.797c-0.625-1.469-0.936-3.009-0.936-4.617s0.311-3.148,0.936-4.615
			c0.626-1.469,1.469-2.733,2.532-3.799c1.062-1.062,2.329-1.907,3.798-2.531c1.468-0.624,3.009-0.937,4.615-0.937
			c1.61,0,3.148,0.312,4.617,0.937s2.734,1.469,3.797,2.531c1.063,1.062,1.908,2.33,2.531,3.799
			c0.626,1.467,0.938,3.007,0.938,4.615c0,2.475-0.698,4.718-2.093,6.734l5.79,5.789
			C497.875,230.736,498.083,231.244,498.083,231.839L498.083,231.839L498.083,231.839z"/>
	</g>
</g>
</svg>
