<?xml version="1.0" encoding="UTF-8" standalone="no"?>
<!-- Created with Inkscape (http://www.inkscape.org/) -->

<svg
   xmlns:dc="http://purl.org/dc/elements/1.1/"
   xmlns:cc="http://creativecommons.org/ns#"
   xmlns:rdf="http://www.w3.org/1999/02/22-rdf-syntax-ns#"
   xmlns:svg="http://www.w3.org/2000/svg"
   xmlns="http://www.w3.org/2000/svg"
   xmlns:sodipodi="http://sodipodi.sourceforge.net/DTD/sodipodi-0.dtd"
   xmlns:inkscape="http://www.inkscape.org/namespaces/inkscape"
   width="1271.0991"
   height="395.92761"
   viewBox="0 0 1271.0991 395.92761"
   id="svg2"
   version="1.1"
   inkscape:version="0.91 r13725"
   sodipodi:docname="logo.svg">
  <defs
     id="defs4" />
  <sodipodi:namedview
     id="base"
     pagecolor="#ffffff"
     bordercolor="#666666"
     borderopacity="1.0"
     inkscape:pageopacity="0.0"
     inkscape:pageshadow="2"
     inkscape:zoom="0.78615036"
     inkscape:cx="586.39861"
     inkscape:cy="567.74945"
     inkscape:document-units="px"
     inkscape:current-layer="layer1"
     showgrid="false"
     inkscape:window-width="1575"
     inkscape:window-height="1360"
     inkscape:window-x="3593"
     inkscape:window-y="487"
     inkscape:window-maximized="0"
     units="px"
     fit-margin-top="0"
     fit-margin-left="0"
     fit-margin-right="0"
     fit-margin-bottom="0" />
  <metadata
     id="metadata7">
    <rdf:RDF>
      <cc:Work
         rdf:about="">
        <dc:format>image/svg+xml</dc:format>
        <dc:type
           rdf:resource="http://purl.org/dc/dcmitype/StillImage" />
        <dc:title></dc:title>
      </cc:Work>
    </rdf:RDF>
  </metadata>
  <g
     inkscape:label="レイヤー 1"
     inkscape:groupmode="layer"
     id="layer1"
     transform="translate(-1.2814999e-6,-742.36218)">
    <circle
       style="opacity:1;fill:#d18400;fill-opacity:1;fill-rule:evenodd;stroke:#000000;stroke-width:0.94805652px;stroke-linecap:butt;stroke-linejoin:miter;stroke-opacity:1"
       id="path3336-5-4-7"
       cx="140.89999"
       cy="897.36218"
       r="49.52597" />
    <circle
       style="opacity:1;fill:#925e36;fill-opacity:1;fill-rule:evenodd;stroke:#000000;stroke-width:0.94805652px;stroke-linecap:butt;stroke-linejoin:miter;stroke-opacity:1"
       id="path3336-5-45-8"
       cx="140.89999"
       cy="792.36218"
       r="49.52597" />
    <circle
       style="opacity:1;fill:#f8b332;fill-opacity:1;fill-rule:evenodd;stroke:#000000;stroke-width:0.94805652px;stroke-linecap:butt;stroke-linejoin:miter;stroke-opacity:1"
       id="path3336-5-5"
       cx="140.89999"
       cy="1002.3622"
       r="49.52597" />
    <circle
       style="opacity:1;fill:#925e36;fill-opacity:1;fill-rule:evenodd;stroke:#000000;stroke-width:0.94805652px;stroke-linecap:butt;stroke-linejoin:miter;stroke-opacity:1"
       id="path3336-5-9-5"
       cx="50"
       cy="844.86218"
       r="49.52597" />
    <circle
       style="opacity:1;fill:#925e36;fill-opacity:1;fill-rule:evenodd;stroke:#000000;stroke-width:0.94805652px;stroke-linecap:butt;stroke-linejoin:miter;stroke-opacity:1"
       id="path3336-5-9-5-3"
       cx="50"
       cy="949.86218"
       r="49.52597"
       inkscape:transform-center-x="-115.13022"
       inkscape:transform-center-y="73.7553" />
    <circle
       style="opacity:1;fill:#f8b332;fill-opacity:1;fill-rule:evenodd;stroke:#000000;stroke-width:0.94805652px;stroke-linecap:butt;stroke-linejoin:miter;stroke-opacity:1"
       id="path3336-5-5-4"
       cx="229.99997"
       cy="844.86218"
       r="49.52597" />
    <circle
       style="opacity:1;fill:#f8b332;fill-opacity:1;fill-rule:evenodd;stroke:#000000;stroke-width:0.94805652px;stroke-linecap:butt;stroke-linejoin:miter;stroke-opacity:1"
       id="path3336-5-5-1"
       cx="229.99997"
       cy="949.86218"
       r="49.52597" />
    <path
       style="fill:#000000;shape-rendering:crispEdges"
       d="m 1148.4906,1136.9612 c -16.2363,-3.8262 -25.8307,-16.0307 -25.8546,-32.8879 -0.01,-7.8048 3.2306,-17.388 13.2896,-39.2889 7.3174,-15.9315 13.3042,-30.1966 13.3042,-31.6999 0,-1.5036 -11.5744,-31.1841 -25.7207,-65.95677 -22.3991,-55.05824 -25.57,-64.4496 -24.5534,-72.72127 2.2254,-18.10894 17.5524,-32.90798 34.0818,-32.90798 20.2669,0 26.5128,7.89415 41.5202,52.47628 5.2943,15.72784 10.4924,28.22264 11.5511,27.76615 1.0587,-0.45646 6.1755,-14.39624 11.3706,-30.97728 5.195,-16.58103 11.0806,-32.87096 13.0791,-36.19982 5.0122,-8.34897 14.9933,-13.46867 26.2574,-13.46867 18.0597,0 31.7849,13.35623 33.8026,32.89373 0.9531,9.22864 -3.26,21.02206 -41.636,116.54733 -23.4829,58.4539 -44.6176,109.2768 -46.9658,112.9399 -7.3573,11.4765 -20.1739,16.6321 -33.5261,13.4851 z m -833.75605,-85.4833 c -10.28669,-3.8869 -17.75389,-11.1694 -22.39287,-21.839 -2.9452,-6.7739 -3.45101,-22.1944 -3.45101,-105.21856 0,-107.36753 0.11332,-108.33203 13.98695,-119.11404 10.40922,-8.08961 29.25131,-8.78799 39.22992,-1.45412 4.26844,3.1371 26.9695,30.18703 50.4468,60.11092 23.47734,29.92389 43.68312,54.77007 44.90172,55.21374 1.42474,0.51872 2.21569,-15.7658 2.21569,-45.61561 0,-38.19776 0.65068,-47.91879 3.67263,-54.86921 9.08881,-20.90412 37.20277,-27.54432 52.90643,-12.4959 14.76241,14.14645 14.37677,10.9396 14.37677,119.55335 0,110.19403 0.0332,109.93703 -15.61174,121.23683 -10.39951,7.5112 -27.3634,8.2749 -37.62345,1.6938 -3.82956,-2.4566 -26.55422,-30.3308 -50.49923,-61.94296 -23.945,-31.61218 -44.27019,-57.47667 -45.16706,-57.47667 -0.89688,0 -1.93613,22.59742 -2.30946,50.21651 -0.65024,48.10262 -0.89619,50.54902 -5.84271,58.11832 -8.94975,13.6946 -24.5651,19.2762 -38.83938,13.8826 z m 301.21807,0.9811 c -46.47054,-5.8779 -78.58945,-36.9516 -85.25325,-82.47863 -9.48569,-64.80607 41.13071,-116.04421 106.90233,-108.21544 38.5354,4.58684 77.01698,46.53032 77.02207,83.95119 10e-4,13.95008 -4.20269,25.40162 -10.44873,28.45802 -2.17934,1.06643 -25.73027,2.39514 -52.33543,2.95264 -47.31553,0.99152 -48.28985,1.11405 -44.56932,5.60094 2.09203,2.52294 7.39592,5.67627 11.78643,7.00744 10.82693,3.28241 38.32289,2.81072 54.54748,-0.93568 15.80376,-3.64945 26.32166,-1.66027 33.67852,6.36903 12.12431,13.23279 6.92682,33.31919 -11.5704,44.71529 -16.60568,10.2313 -52.96715,15.9638 -79.7597,12.5752 z m 26.84564,-117.34629 c -0.74028,-2.10542 -1.34591,-4.82798 -1.34591,-6.05017 0,-5.62636 -9.24972,-11.90243 -17.54188,-11.90243 -6.96187,0 -9.80452,1.46856 -14.41287,7.44588 -9.85229,12.77917 -8.28386,14.33477 14.45304,14.33477 17.50289,0 20.01421,-0.51007 18.84762,-3.82805 z m 133.48515,117.50959 c -6.94318,-1.1825 -18.53436,-5.4062 -25.75814,-9.3861 -25.4153,-14.0024 -31.84967,-31.7576 -17.27385,-47.66577 9.43641,-10.29902 20.8017,-11.39306 45.99786,-4.4279 6.88359,1.90286 17.1112,3.45992 22.72802,3.45992 8.63067,0 10.21245,-0.72765 10.21245,-4.69737 0,-6.10776 -0.22241,-6.23026 -27.02193,-14.87876 -12.57787,-4.05902 -27.08307,-10.05609 -32.23373,-13.32687 -25.90932,-16.45282 -28.43218,-57.78381 -4.84917,-79.4416 16.46465,-15.12059 34.60306,-21.24547 62.48867,-21.10087 32.19303,0.16698 56.8658,10.4167 62.87796,26.12125 2.66777,6.9685 2.65662,9.26315 -0.0798,16.41076 -3.51386,9.17862 -13.19444,15.90702 -22.82235,15.86247 -3.41423,-0.0168 -11.69578,-1.63644 -18.40331,-3.60139 -14.19985,-4.15984 -32.36894,-4.74245 -34.42925,-1.10402 -2.77014,4.89197 4.1501,9.67271 23.0724,15.93909 42.44133,14.05505 58.60079,31.05882 58.64227,61.70641 0.0333,24.58555 -18.01939,47.71415 -43.95938,56.31945 -14.21481,4.7154 -42.99718,6.569 -59.18872,3.8113 z m 161.18769,-1.2496 c -10.87432,-4.078 -20.0167,-14.7467 -23.13315,-26.9954 -1.28803,-5.0621 -2.34744,-29.05847 -2.35422,-53.32451 l -0.0133,-44.12017 -6.09774,-1.40466 c -9.75729,-2.2477 -16.80629,-7.28573 -22.36948,-15.98793 -11.4047,-17.83962 0.0678,-42.75535 21.40106,-46.47853 l 9.28353,-1.62022 0,-14.13391 c 0,-23.59721 13.79725,-39.45379 34.32975,-39.45379 19.65488,0 34.4087,17.57221 34.4087,40.98176 l 0,12.08855 9.79284,2.69128 c 11.21221,3.08138 22.38011,13.98632 24.04221,23.47613 1.5927,9.09285 -2.2268,22.41181 -8.3404,29.08428 -2.851,3.11161 -9.75359,6.91342 -15.3391,8.44845 l -10.15555,2.79096 0,47.35005 c 0,42.94476 -0.42725,48.31346 -4.59207,57.70296 -7.62768,17.1973 -24.54657,25.0243 -40.86399,18.9047 z m 106.8413,0.1288 c -4.6541,-1.7587 -10.4937,-5.2044 -12.9769,-7.6571 -10.7221,-10.59 -10.7131,-10.4799 -10.7131,-129.83602 l 0,-112.29553 4.9967,-8.0923 c 6.8669,-11.12135 17.2778,-17.22755 29.3726,-17.22755 12.8509,0 22.9972,6.46237 29.3424,18.68875 4.9261,9.49203 4.9538,10.16104 4.9538,119.65862 0,109.49743 -0.028,110.16653 -4.9538,119.65843 -8.2524,15.9014 -24.6535,22.9104 -40.0217,17.1032 z"
       id="path7096"
       inkscape:connector-curvature="0" />
    <path
       style="fill:#925e36;fill-opacity:1;stroke:none;stroke-width:1px;stroke-linecap:butt;stroke-linejoin:miter;stroke-opacity:1;shape-rendering:crispEdges"
       d="m 779.92704,1052.5684 c -14.46429,-2.0038 -33.9942,-11.0769 -43.61571,-20.2628 -13.00609,-12.4176 -13.2646,-25.6521 -0.73615,-37.6882 8.95202,-8.60019 15.70905,-9.13506 42.13449,-3.33565 16.36273,3.5911 26.67039,4.70186 31.04316,3.34559 2.61614,-0.81139 3.39671,-1.80252 3.65701,-4.64363 0.21155,-2.30977 -0.38801,-4.31053 -1.66301,-5.54878 -1.0967,-1.06508 -9.4776,-4.49543 -18.62425,-7.62289 -28.30474,-9.678 -38.55065,-14.49522 -45.43396,-21.36127 -3.96747,-3.95755 -7.32237,-8.83559 -9.69637,-14.09876 -3.40359,-7.54567 -3.62995,-8.84145 -3.62995,-20.77836 0,-11.83525 0.25174,-13.31091 3.57871,-20.97723 6.31359,-14.54838 20.562,-26.77479 38.39765,-32.94858 22.91712,-7.93277 62.69732,-5.58362 81.49472,4.81251 10.88296,6.01893 17.8003,15.35929 17.86183,24.11837 0.0353,5.01516 -4.95378,14.17419 -9.74494,17.89021 -8.55655,6.63643 -12.41495,6.75045 -36.79546,1.08734 -11.37898,-2.64314 -25.45027,-3.23995 -28.89868,-1.22571 -1.17946,0.68896 -2.14449,2.2276 -2.14449,3.41919 0,4.3718 5.51099,7.69786 25.11385,15.15702 22.9054,8.71589 33.12442,14.23807 41.59354,22.47651 11.44581,11.13405 17.29821,29.65728 14.4025,45.58467 -4.57715,25.17595 -25.70284,45.51515 -52.53859,50.58255 -11.63199,2.1965 -36.53756,3.2949 -45.7559,2.0179 z"
       id="path8460"
       inkscape:connector-curvature="0" />
    <path
       style="fill:#925e36;fill-opacity:1;shape-rendering:crispEdges"
       d="m 314.70342,1050.8318 c -9.15191,-3.7069 -16.70048,-10.8604 -20.93684,-19.8408 -3.58393,-7.5977 -4.3474,-25.7401 -4.36749,-103.78759 -0.0178,-69.23776 0.90584,-98.03112 3.44122,-107.26696 4.15443,-15.13383 24.69863,-24.27819 42.12371,-18.74953 5.35853,1.70019 7.36211,3.3637 16.5715,13.75879 5.76178,6.50363 19.17714,22.71509 29.81191,36.02547 10.63477,13.3104 26.08774,32.58108 34.33996,42.82374 8.25225,10.24269 16.16277,20.1801 17.57894,22.08315 1.41618,1.90307 3.21496,3.46012 3.99724,3.46012 2.10364,0 2.83353,-11.92154 2.85221,-46.58636 0.0253,-47.10398 1.40002,-54.64591 11.77727,-64.61537 6.61957,-6.35943 17.94385,-10.45305 26.02639,-9.40828 11.23756,1.45261 23.63831,10.8044 27.77585,20.94666 3.54207,8.68272 4.22839,25.60422 4.23839,104.50348 0.008,79.90848 -0.80367,100.90188 -4.24007,109.38038 -2.41873,5.9677 -8.7459,12.292 -15.63122,15.6241 -6.19643,2.9987 -18.84794,4.0347 -25.45602,2.0846 -8.12032,-2.3964 -17.78316,-13.4959 -62.18234,-71.42741 -30.09785,-39.27136 -39.9806,-51.2358 -41.21157,-49.89228 -0.53603,0.58502 -1.45024,20.62625 -2.03152,44.53601 -0.58132,23.90982 -1.3482,46.19488 -1.70422,49.52258 -1.10952,10.3704 -7.32934,19.438 -17.14308,24.9924 -6.04593,3.422 -19.35734,4.3737 -25.63022,1.8331 z"
       id="path8462"
       inkscape:connector-curvature="0" />
    <path
       style="fill:#d18400;fill-opacity:1;shape-rendering:crispEdges"
       d="m 937.57973,1050.7674 c -9.10724,-3.7024 -15.62363,-10.3655 -20.63124,-21.096 -3.20541,-6.8686 -4.44235,-26.1479 -4.49451,-70.05291 l -0.0393,-32.92682 -4.71193,-1.31585 c -8.43195,-2.3547 -11.10341,-3.57519 -15.14571,-6.91962 -12.60972,-10.43268 -16.12225,-24.39017 -9.48671,-37.69638 5.17679,-10.38094 13.3565,-15.96931 26.06822,-17.80972 l 5.49347,-0.79536 0,-9.87519 c 0,-24.2028 8.28667,-37.88605 25.80078,-42.60318 6.19007,-1.66723 8.49932,-1.76822 13.82074,-0.60445 17.5633,3.84098 28.00825,19.81689 28.00825,42.83953 l 0,9.25173 4.7119,1.31586 c 2.59157,0.72372 6.20865,1.84601 8.03796,2.49399 5.46095,1.93432 14.53125,9.38175 17.90665,14.70278 2.7001,4.25635 3.1579,6.14771 3.1555,13.03451 -0.01,16.78442 -8.6579,27.42092 -26.09914,32.08585 l -7.71287,2.06292 0,43.20869 c 0,45.69752 -0.62882,53.62252 -5.00215,63.04202 -2.80655,6.0446 -9.34002,13.1287 -15.16511,16.4429 -4.91439,2.7964 -18.91792,3.4901 -24.51495,1.2147 z"
       id="path8464"
       inkscape:connector-curvature="0" />
    <path
       style="fill:#d18400;fill-opacity:1;shape-rendering:crispEdges"
       d="m 610.95342,1051.2949 c -48.09979,-9.6001 -77.61633,-43.1507 -80.49296,-91.49393 -2.69703,-45.32494 24.90051,-83.24298 69.25498,-95.15396 12.6187,-3.38866 35.97612,-3.66583 46.80525,-0.55545 20.17913,5.79591 41.91241,22.54415 54.66717,42.12796 12.51077,19.20912 16.15823,43.2593 9.04271,59.62488 -3.89131,8.94998 -3.67507,8.91707 -74.49237,11.33154 -15.9917,0.54526 -29.44457,1.3938 -29.89529,1.88576 -1.585,1.72987 1.49892,5.0504 8.02772,8.64342 6.41099,3.5284 7.10895,3.64126 24.88926,4.02615 14.25553,0.30867 21.65007,-0.15274 33.50132,-2.09369 17.61939,-2.88469 24.16094,-2.2024 31.34732,3.26907 17.82696,13.57315 9.25322,40.05125 -16.31864,50.39625 -14.59047,5.9026 -27.41718,8.0916 -50.19304,8.5663 -11.58574,0.2415 -23.35031,-0.018 -26.14343,-0.5743 z m 27.25213,-112.41223 4.43473,-0.88666 -0.32788,-5.39066 c -0.18029,-2.96485 -1.02755,-6.55611 -1.88273,-7.98057 -2.54569,-4.24037 -10.45679,-7.70667 -17.58891,-7.70667 -6.00401,0 -6.64229,0.29887 -11.72851,5.49132 -9.61657,9.81749 -9.90578,15.71666 -0.81465,16.61795 8.41087,0.83387 23.40217,0.75615 27.90795,-0.14468 z"
       id="path8466"
       inkscape:connector-curvature="0" />
    <path
       style="fill:#d18400;fill-opacity:1;shape-rendering:crispEdges"
       d="m 1039.1406,1048.1212 c -4.7712,-2.605 -9.0831,-5.9947 -10.8598,-8.5371 -6.4201,-9.1865 -6.3,-6.9253 -6.7539,-127.20037 l -0.4167,-110.41243 4.6144,-7.17969 c 7.7437,-12.0485 16.9104,-17.46249 29.5221,-17.43629 13.1376,0.0274 23.1938,6.91318 29.3622,20.10544 1.7632,3.77083 2.6194,8.59538 3.2689,18.41939 1.2192,18.44038 1.1817,180.73753 -0.046,198.03195 -1.1133,15.6872 -2.2201,18.9443 -9.2957,27.3562 -6.5148,7.7456 -13.705,11.1472 -23.5937,11.162 -6.8413,0.017 -8.9398,-0.5622 -15.8021,-4.3091 z"
       id="path8468"
       inkscape:connector-curvature="0" />
    <path
       style="fill:#925e36;fill-opacity:1;shape-rendering:crispEdges"
       d="m 933.95931,1048.1376 c -6.35003,-3.4535 -12.34736,-10.0664 -15.7698,-17.3881 -3.51055,-7.5104 -4.5555,-19.9105 -5.3787,-63.82703 l -0.7602,-40.55508 -8.0668,-2.78962 c -18.74519,-6.48239 -28.00961,-24.17898 -21.22363,-40.54065 4.32604,-10.43048 12.49333,-16.76394 24.82671,-19.25231 3.59367,-0.72505 6.61644,-1.3183 6.71723,-1.3183 0.10081,0 0.48278,-5.30902 0.84887,-11.79783 0.89448,-15.85398 3.34702,-23.67313 9.62538,-30.68761 14.72029,-16.44609 40.33153,-13.35197 51.19047,6.1844 3.26377,5.87183 4.54594,11.62299 5.23369,23.47585 l 0.6952,11.9805 7.42309,2.21501 c 15.68328,4.67983 26.39178,15.85565 26.39178,27.54353 0,9.95583 -2.2216,16.02549 -8.2382,22.50763 -5.4974,5.92277 -9.8368,8.25395 -21.34022,11.46432 l -4.63303,1.29298 -0.41743,48.07546 c -0.48681,56.06785 -0.41853,55.64525 -10.82765,67.01815 -7.17841,7.8426 -11.10257,9.4762 -22.78704,9.4863 -6.17432,0 -9.01777,-0.6445 -13.50972,-3.0876 z"
       id="path8470"
       inkscape:connector-curvature="0" />
    <path
       style="fill:#f8b332;fill-opacity:1;shape-rendering:crispEdges"
       d="m 770.69332,1049.9743 c -4.57331,-1.2839 -13.32752,-5.0321 -19.45383,-8.3291 -26.76506,-14.4048 -31.68987,-32.8257 -12.96141,-48.481 4.4792,-3.74431 5.94085,-4.27052 12.93339,-4.65588 5.34882,-0.29484 13.04521,0.61382 23.93799,2.82585 21.78261,4.42356 33.28453,5.22386 35.78921,2.49014 3.03359,-3.31087 2.37059,-7.64728 -1.56902,-10.26205 -1.89956,-1.26089 -12.65055,-5.61549 -23.89105,-9.67719 -25.18644,-9.10084 -33.68338,-13.65147 -40.63465,-21.76228 -8.53079,-9.95383 -10.71344,-16.40729 -10.72636,-31.71451 -0.009,-12.3065 0.15438,-13.20543 3.92465,-21.43102 6.91251,-15.08041 24.10819,-28.59246 42.62926,-33.49731 17.80472,-4.71512 50.98651,-3.18861 68.48083,3.15042 13.39507,4.8537 23.35662,14.83371 24.34334,24.3885 1.24111,12.01742 -10.35418,25.10927 -22.23894,25.10927 -2.07234,0 -10.38702,-1.36129 -18.47707,-3.02508 -15.81255,-3.25202 -31.92892,-3.99444 -34.14748,-1.57305 -2.38565,2.60373 -1.44778,6.3168 2.2804,9.02839 1.97761,1.43837 11.82762,5.96061 21.88894,10.04944 33.62464,13.66473 43.19539,20.69834 50.69239,37.25425 4.00453,8.84336 4.18747,9.7787 4.18747,21.41051 0,11.1206 -0.29572,12.837 -3.45056,20.0282 -7.4374,16.953 -21.13413,29.7655 -38.05652,35.6001 -16.80506,5.7939 -50.20627,7.3617 -65.48098,3.0734 z"
       id="path8472"
       inkscape:connector-curvature="0" />
    <path
       style="fill:#f8b332;fill-opacity:1;stroke:#ffffff;stroke-width:2.31650352;stroke-opacity:1;shape-rendering:crispEdges"
       d="m 1143.9258,1134.7362 c -17.221,-7.3416 -24.0399,-22.2266 -18.8904,-41.2359 0.9792,-3.6146 6.6463,-17.7348 12.5937,-31.3779 5.9473,-13.6432 11.1226,-25.7733 11.5005,-26.956 0.8696,-2.7209 -1.9752,-10.4909 -23.2976,-63.63426 -21.863,-54.49058 -26.1472,-66.70918 -26.1635,-74.61935 -0.025,-12.16356 7.6767,-24.36679 19.4215,-30.77227 5.7502,-3.13607 7.9687,-3.6701 15.1518,-3.64742 18.4138,0.0581 24.8377,8.31644 39.5124,50.7949 5.0545,14.63121 11.0756,29.04084 12.1349,29.04084 1.1751,0 5.1661,-10.43681 12.7248,-33.27596 12.4978,-37.76324 15.2193,-41.9625 29.841,-46.04448 23.0865,-6.44505 45.5484,15.05409 40.8619,39.11059 -2.0505,10.52564 -20.0777,57.34013 -56.022,145.48281 -29.4703,72.267 -30.7532,75.1215 -36.244,80.6514 -8.6541,8.7161 -21.8358,11.2961 -33.125,6.483 z"
       id="path8474"
       inkscape:connector-curvature="0" />
  </g>
</svg>
