<?xml version="1.0" encoding="utf-8"?>
<!-- Generator: Adobe Illustrator 16.0.4, SVG Export Plug-In . SVG Version: 6.00 Build 0)  -->
<!DOCTYPE svg PUBLIC "-//W3C//DTD SVG 1.1//EN" "http://www.w3.org/Graphics/SVG/1.1/DTD/svg11.dtd">
<svg version="1.1" id="レイヤー_1" xmlns="http://www.w3.org/2000/svg" xmlns:xlink="http://www.w3.org/1999/xlink" x="0px"
	 y="0px" width="224px" height="49.962px" viewBox="0 0 224 49.962" enable-background="new 0 0 224 49.962" xml:space="preserve">
<g>
	<path d="M14.843,34.007v7.725H8.569v7.513H0V31.37c0-3.362,1.038-6.145,3.113-8.347c2.075-2.202,4.688-3.303,7.84-3.303
		c3.475,0,6.381,1.498,8.716,4.496l-7.027,5.127c-0.395-1.097-1.091-1.646-2.089-1.646c-1.323,0-1.984,0.915-1.984,2.743v3.566
		H14.843z"/>
	<path d="M31.771,19.72c3.672,0,6.821,1.485,9.449,4.453c2.627,2.969,3.941,6.521,3.941,10.656c0,4.207-1.323,7.782-3.969,10.722
		c-2.646,2.941-5.863,4.411-9.649,4.411c-3.76,0-6.97-1.479-9.629-4.432c-2.659-2.956-3.989-6.521-3.989-10.701
		c0-4.22,1.339-7.793,4.018-10.72C24.62,21.184,27.896,19.72,31.771,19.72z M31.542,28.204c-1.583,0-2.931,0.648-4.045,1.942
		c-1.114,1.294-1.671,2.856-1.671,4.684c0,1.829,0.56,3.391,1.681,4.686c1.121,1.296,2.466,1.942,4.036,1.942
		c1.596,0,2.947-0.644,4.056-1.931c1.107-1.288,1.662-2.853,1.662-4.697c0-1.843-0.555-3.408-1.662-4.694
		C34.489,28.847,33.138,28.204,31.542,28.204z"/>
	<path d="M48.315,20.438h8.569v17.116c0,1.336,0.214,2.226,0.644,2.671c0.429,0.441,1.277,0.664,2.542,0.664h0.443v8.356h-2.279
		c-3.124,0-5.557-0.911-7.302-2.733c-1.744-1.821-2.617-4.351-2.617-7.587V20.438z"/>
	<path d="M63.103,20.438h8.568v17.116c0,1.336,0.214,2.226,0.644,2.671c0.429,0.441,1.277,0.664,2.542,0.664h0.443v8.356h-2.279
		c-3.124,0-5.558-0.911-7.302-2.733c-1.744-1.821-2.617-4.351-2.617-7.587V20.438z"/>
	<path d="M90.383,19.72c3.672,0,6.821,1.485,9.449,4.453c2.627,2.969,3.941,6.521,3.941,10.656c0,4.207-1.323,7.782-3.969,10.722
		c-2.646,2.941-5.863,4.411-9.649,4.411c-3.76,0-6.97-1.479-9.629-4.432c-2.659-2.956-3.989-6.521-3.989-10.701
		c0-4.22,1.339-7.793,4.018-10.72C83.232,21.184,86.508,19.72,90.383,19.72z M90.154,28.204c-1.583,0-2.931,0.648-4.045,1.942
		c-1.114,1.294-1.671,2.856-1.671,4.684c0,1.829,0.56,3.391,1.681,4.686c1.121,1.296,2.466,1.942,4.036,1.942
		c1.596,0,2.947-0.644,4.056-1.931c1.107-1.288,1.662-2.853,1.662-4.697c0-1.843-0.555-3.408-1.662-4.694
		C93.102,28.847,91.75,28.204,90.154,28.204z"/>
	<path d="M119.717,33.101h8.167c1.758,2.18,2.637,4.48,2.637,6.9c0,2.814-1.029,5.179-3.09,7.092
		c-2.062,1.913-4.599,2.869-7.608,2.869c-3.912,0-7.231-1.485-9.961-4.453c-2.729-2.968-4.094-6.585-4.094-10.847
		c0-4.277,1.39-7.837,4.168-10.679c2.779-2.842,6.25-4.263,10.416-4.263c1.42,0,2.997,0.289,4.726,0.865v8.568
		c-1.351-0.633-2.582-0.95-3.691-0.95c-2.013,0-3.655,0.626-4.929,1.879c-1.273,1.252-1.909,2.878-1.909,4.874
		c0,2.04,0.591,3.659,1.772,4.856c1.182,1.193,2.779,1.792,4.792,1.792c1.279,0,1.919-0.371,1.919-1.118
		c0-0.562-0.421-0.845-1.266-0.845h-2.047V33.101z"/>
	<path d="M149.256,31.644v6.416h-5.592c-0.76,0-1.298,0.112-1.615,0.338c-0.316,0.224-0.476,0.605-0.476,1.141
		c0,0.604,0.162,1.001,0.485,1.19c0.324,0.19,0.986,0.284,1.984,0.284h5.761v8.231h-6.731c-3.166,0-5.585-0.756-7.261-2.269
		c-1.674-1.512-2.512-3.695-2.512-6.552V29.132c0-2.757,0.793-4.896,2.375-6.416c1.583-1.519,3.809-2.279,6.68-2.279h7.449v8.273
		h-5.465c-1.478,0-2.217,0.479-2.217,1.436c0,0.562,0.177,0.953,0.528,1.172c0.352,0.218,0.977,0.326,1.878,0.326H149.256z"/>
	<path d="M163.486,28.183v21.062h-8.569V20.438h10.994c3.349,0,5.945,0.831,7.788,2.491c2.054,1.857,3.08,4.214,3.08,7.069
		c0,2.912-1.272,5.367-3.819,7.367l4.939,11.88h-8.99l-4.159-9.285v-7.407h0.676c1.803,0,2.702-0.774,2.702-2.322
		c0-1.364-1.042-2.047-3.123-2.047H163.486z"/>
</g>
<ellipse cx="202.445" cy="18.04" rx="21.556" ry="18.041"/>
<polygon points="202.022,29.802 185.575,35.381 188.967,18.348 "/>
<g>
	<path fill="#FFFFFF" d="M192.549,21.889c0,0.55-0.416,0.922-0.958,0.828l-1.956-0.324c-0.543-0.095-1.086-0.623-1.086-1.172v-6.359
		c0-0.55,0.557-1.078,1.1-1.172l1.886-0.325c0.542-0.095,1.015,0.278,1.015,0.828V21.889z"/>
</g>
<g>
	<path fill="#FFFFFF" d="M207.549,25.901c0,0.55-0.379,0.943-0.924,0.873l-3.158-0.415c-0.546-0.07-0.918-0.578-0.918-1.127V10.847
		c0-0.55,0.406-1.057,0.952-1.127l3.144-0.414c0.546-0.07,0.904,0.323,0.904,0.873V25.901z"/>
</g>
<g>
	<path fill="#FFFFFF" d="M214.549,22.833c0,0.55-0.476,0.943-1.021,0.873l-3.109-0.415c-0.546-0.07-0.869-0.577-0.869-1.127v-8.768
		c0-0.55,0.309-1.057,0.854-1.127l3.192-0.415c0.547-0.07,0.953,0.323,0.953,0.873V22.833z"/>
</g>
<g>
	<path fill="#FFFFFF" d="M199.549,24.578c0,0.55-0.273,0.943-0.818,0.873l-3.21-0.414c-0.546-0.07-0.972-0.577-0.972-1.127V11.933
		c0-0.55,0.512-1.057,1.059-1.127l3.09-0.415c0.546-0.07,0.852,0.323,0.852,0.873V24.578z"/>
</g>
</svg>
