<?xml version="1.0" encoding="utf-8"?>
<!-- Generator: Adobe Illustrator 16.0.4, SVG Export Plug-In . SVG Version: 6.00 Build 0)  -->
<!DOCTYPE svg PUBLIC "-//W3C//DTD SVG 1.1//EN" "http://www.w3.org/Graphics/SVG/1.1/DTD/svg11.dtd">
<svg version="1.1" id="レイヤー_1" xmlns="http://www.w3.org/2000/svg" xmlns:xlink="http://www.w3.org/1999/xlink" x="0px"
	 y="0px" width="130.821px" height="29.182px" viewBox="0 4 130.821 29.182" enable-background="new 0 4 130.821 29.182"
	 xml:space="preserve">
<g>
	<path d="M8.668,23.861v4.512H5.004v4.388H0V22.321c0-1.964,0.605-3.589,1.817-4.875s2.738-1.929,4.579-1.929
		c2.028,0,3.728,0.875,5.09,2.625l-4.104,2.995c-0.229-0.643-0.637-0.963-1.22-0.963c-0.771,0-1.159,0.534-1.159,1.604v2.083H8.668z
		"/>
	<path d="M18.555,15.517c2.146,0,3.983,0.865,5.52,2.601c1.534,1.734,2.302,3.809,2.302,6.224c0,2.457-0.772,4.547-2.317,6.264
		c-1.545,1.718-3.425,2.576-5.636,2.576c-2.195,0-4.07-0.863-5.624-2.59c-1.553-1.727-2.329-3.809-2.329-6.25
		c0-2.464,0.781-4.551,2.346-6.261C14.378,16.372,16.292,15.517,18.555,15.517z M18.421,20.472c-0.924,0-1.712,0.378-2.362,1.134
		c-0.649,0.756-0.977,1.668-0.977,2.733c0,1.068,0.327,1.98,0.981,2.736c0.653,0.757,1.439,1.135,2.356,1.135
		c0.933,0,1.722-0.376,2.369-1.128c0.646-0.752,0.971-1.666,0.971-2.743c0-1.074-0.323-1.988-0.971-2.74
		C20.143,20.848,19.354,20.472,18.421,20.472z"/>
	<path d="M28.217,15.936h5.005v9.996c0,0.778,0.125,1.3,0.376,1.56c0.25,0.258,0.745,0.388,1.484,0.388h0.259v4.881H34.01
		c-1.823,0-3.245-0.53-4.265-1.597c-1.02-1.062-1.528-2.541-1.528-4.431V15.936z"/>
	<path d="M36.854,15.936h5.004v9.996c0,0.778,0.125,1.3,0.376,1.56c0.25,0.258,0.746,0.388,1.485,0.388h0.259v4.881h-1.331
		c-1.823,0-3.246-0.53-4.266-1.597c-1.02-1.062-1.527-2.541-1.527-4.431V15.936z"/>
	<path d="M52.786,15.517c2.146,0,3.983,0.865,5.52,2.601c1.535,1.735,2.302,3.809,2.302,6.224c0,2.457-0.772,4.547-2.317,6.264
		c-1.545,1.718-3.424,2.576-5.636,2.576c-2.195,0-4.07-0.863-5.624-2.59c-1.553-1.727-2.329-3.809-2.329-6.25
		c0-2.464,0.781-4.551,2.346-6.261C48.609,16.372,50.523,15.517,52.786,15.517z M52.652,20.472c-0.924,0-1.712,0.378-2.362,1.134
		c-0.649,0.756-0.977,1.668-0.977,2.733c0,1.068,0.327,1.98,0.981,2.736c0.654,0.757,1.439,1.135,2.356,1.135
		c0.933,0,1.722-0.376,2.369-1.128c0.646-0.752,0.972-1.666,0.972-2.743c0-1.074-0.324-1.988-0.972-2.74
		C54.374,20.848,53.584,20.472,52.652,20.472z"/>
	<path d="M69.917,23.332h4.771c1.025,1.273,1.54,2.617,1.54,4.03c0,1.644-0.603,3.022-1.806,4.142
		c-1.204,1.117-2.687,1.678-4.442,1.678c-2.285,0-4.225-0.867-5.817-2.603c-1.595-1.734-2.392-3.846-2.392-6.335
		c0-2.498,0.812-4.577,2.435-6.237c1.623-1.658,3.649-2.488,6.083-2.488c0.829,0,1.75,0.168,2.76,0.505v5.004
		c-0.789-0.37-1.508-0.555-2.155-0.555c-1.176,0-2.136,0.364-2.878,1.097c-0.743,0.729-1.115,1.681-1.115,2.847
		c0,1.191,0.346,2.137,1.035,2.836c0.689,0.697,1.623,1.047,2.798,1.047c0.747,0,1.121-0.217,1.121-0.651
		c0-0.328-0.246-0.493-0.739-0.493h-1.195v-3.822H69.917z"/>
	<path d="M87.169,22.481v3.747h-3.267c-0.442,0-0.758,0.063-0.942,0.195c-0.186,0.133-0.276,0.354-0.276,0.666
		c0,0.354,0.095,0.585,0.282,0.695c0.188,0.111,0.576,0.166,1.159,0.166h3.363v4.808h-3.932c-1.85,0-3.263-0.439-4.24-1.323
		c-0.979-0.885-1.467-2.158-1.467-3.826v-6.595c0-1.61,0.463-2.859,1.387-3.747c0.926-0.889,2.226-1.331,3.901-1.331h4.351v4.832
		h-3.19c-0.862,0-1.295,0.277-1.295,0.838c0,0.329,0.104,0.557,0.31,0.685c0.205,0.127,0.569,0.19,1.098,0.19H87.169z"/>
	<path d="M95.479,20.459V32.76h-5.005V15.936h6.421c1.956,0,3.474,0.483,4.549,1.455c1.199,1.084,1.8,2.461,1.8,4.129
		c0,1.701-0.743,3.134-2.229,4.302l2.885,6.938h-5.251l-2.43-5.423V23.01h0.396c1.054,0,1.578-0.45,1.578-1.354
		c0-0.797-0.607-1.196-1.823-1.196H95.479z"/>
</g>
<ellipse cx="118.232" cy="14.536" rx="12.589" ry="10.536"/>
<polygon points="117.985,21.405 108.38,24.664 110.361,14.716 "/>
<g>
	<path fill="#FFFFFF" d="M112.96,16.368c0,0.55-0.682,0.922-1.224,0.828l-0.527-0.046c-0.542-0.095-1.249-0.623-1.249-1.172v-2.882
		c0-0.552,0.588-1.078,1.131-1.174l0.574-0.046c0.542-0.095,1.295,0.278,1.295,0.828V16.368z"/>
</g>
<g>
	<path fill="#FFFFFF" d="M120.96,18.711c0,0.55-0.278,0.943-0.826,0.873l-1.12-0.136c-0.547-0.07-1.054-0.578-1.054-1.127v-7.569
		c0-0.55,0.59-1.057,1.137-1.127l0.967-0.136c0.546-0.07,0.896,0.323,0.896,0.873V18.711L120.96,18.711z"/>
</g>
<g>
	<path fill="#FFFFFF" d="M124.96,16.919c0,0.55-0.293,0.943-0.838,0.873l-1.116-0.137c-0.546-0.07-1.046-0.577-1.046-1.127V12.24
		c0-0.55,0.576-1.057,1.123-1.127l0.975-0.137c0.546-0.07,0.902,0.321,0.902,0.873V16.919L124.96,16.919z"/>
</g>
<g>
	<path fill="#FFFFFF" d="M116.96,17.938c0,0.55-0.556,0.941-1.101,0.873l-0.984-0.138c-0.546-0.068-0.915-0.575-0.915-1.127v-6.163
		c0-0.55,0.314-1.057,0.86-1.127l1.104-0.136c0.548-0.07,1.035,0.323,1.035,0.873L116.96,17.938L116.96,17.938z"/>
</g>
</svg>
