<?xml version="1.0" encoding="UTF-8" standalone="no"?>
<!-- Created with Inkscape (http://www.inkscape.org/) -->

<svg
   xmlns:dc="http://purl.org/dc/elements/1.1/"
   xmlns:cc="http://creativecommons.org/ns#"
   xmlns:rdf="http://www.w3.org/1999/02/22-rdf-syntax-ns#"
   xmlns:svg="http://www.w3.org/2000/svg"
   xmlns="http://www.w3.org/2000/svg"
   xmlns:sodipodi="http://sodipodi.sourceforge.net/DTD/sodipodi-0.dtd"
   xmlns:inkscape="http://www.inkscape.org/namespaces/inkscape"
   width="125.58889mm"
   height="42.615555mm"
   viewBox="0 0 445 151"
   id="svg2"
   version="1.1"
   inkscape:version="0.91 r13725"
   style="shape-rendering:crispEdges"
   sodipodi:docname="logo.svg">
  <defs
     id="defs4" />
  <sodipodi:namedview
     id="base"
     pagecolor="#ffffff"
     bordercolor="#000000"
     borderopacity="1"
     inkscape:pageopacity="1"
     inkscape:pageshadow="2"
     inkscape:zoom="2"
     inkscape:cx="220.08574"
     inkscape:cy="75.499999"
     inkscape:document-units="px"
     inkscape:current-layer="layer1"
     showgrid="false"
     showguides="false"
     fit-margin-top="0"
     fit-margin-left="0"
     fit-margin-right="0"
     fit-margin-bottom="0"
     inkscape:window-width="1341"
     inkscape:window-height="1018"
     inkscape:window-x="3687"
     inkscape:window-y="848"
     inkscape:window-maximized="0" />
  <metadata
     id="metadata7">
    <rdf:RDF>
      <cc:Work
         rdf:about="">
        <dc:format>image/svg+xml</dc:format>
        <dc:type
           rdf:resource="http://purl.org/dc/dcmitype/StillImage" />
        <dc:title></dc:title>
      </cc:Work>
    </rdf:RDF>
  </metadata>
  <g
     inkscape:label="レイヤー 1"
     inkscape:groupmode="layer"
     id="layer1"
     transform="translate(0,-901.36218)">
    <path
       style="fill:#000000"
       d="m 388.66662,1051.1865 c -7.32232,-1.5811 -11.64927,-6.6241 -11.66003,-13.5897 -0.005,-3.225 1.45692,-7.1849 5.99341,-16.2346 3.3,-6.5831 6,-12.4776 6,-13.0988 0,-0.6213 -5.21985,-12.88561 -11.59966,-27.25405 -10.10166,-22.75068 -11.53168,-26.63129 -11.07324,-30.04923 1.00366,-7.48282 7.91589,-13.59794 15.37044,-13.59794 9.14,0 11.95684,3.26194 18.72495,21.68377 2.38768,6.49892 4.7319,11.66191 5.20937,11.47329 0.47748,-0.18862 2.78506,-5.94869 5.12795,-12.80016 2.3429,-6.85147 4.99722,-13.58265 5.8985,-14.95817 2.26045,-3.44988 6.7617,-5.5654 11.84169,-5.5654 8.14463,0 14.33452,5.51894 15.24448,13.59205 0.42982,3.81338 -1.47025,8.68656 -18.7772,48.15866 -10.59047,24.15378 -20.12187,45.15438 -21.18089,46.66798 -3.31798,4.7423 -9.09815,6.8726 -15.11977,5.5723 z M 12.655189,1015.8638 C 8.0160434,1014.2577 4.6484511,1011.2485 2.5563406,1006.8397 1.2280914,1004.0406 1,997.66869 1,963.36218 1,918.99673 1.0510775,918.59819 7.3078896,914.14294 12.002291,910.80023 20.499791,910.51164 25,913.54208 c 1.925,1.29629 12.162837,12.47362 22.75075,24.8385 10.587912,12.36488 19.700412,22.6316 20.25,22.81493 C 68.643273,961.40985 69,954.68091 69,942.34664 c 0,-15.78374 0.29344,-19.80058 1.656287,-22.67257 4.098913,-8.63782 16.777888,-11.38162 23.86,-5.16345 C 101.17392,920.3561 101,919.03099 101,963.91139 c 0,45.53341 0.0149,45.42721 -7.040655,50.09641 -4.690027,3.1037 -12.340494,3.4193 -16.967622,0.6999 -1.727071,-1.0151 -11.975546,-12.533 -22.774387,-25.59552 -10.798842,-13.0625 -19.965192,-23.75 -20.369666,-23.75 -0.404474,0 -0.873167,9.3375 -1.041539,20.75 -0.293244,19.87652 -0.404163,20.88742 -2.634969,24.01512 -4.036193,5.6588 -11.078472,7.9652 -17.515973,5.7365 z M 148.5,1016.2691 c -20.9575,-2.4287 -35.44265,-15.2687 -38.44793,-34.08101 -4.2779,-26.77858 18.54934,-47.95075 48.21134,-44.71582 17.37889,1.89534 34.7335,19.22685 34.7358,34.68957 8.6e-4,5.76432 -1.89535,10.49623 -4.71222,11.75917 -0.98285,0.44066 -11.60396,0.98969 -23.60249,1.22006 -21.3386,0.40972 -21.778,0.46031 -20.10009,2.31438 0.94347,1.04253 3.33545,2.34552 5.3155,2.89554 4.88278,1.35634 17.28304,1.16143 24.60009,-0.38666 7.12726,-1.50795 11.87067,-0.68603 15.1885,2.63181 5.46789,5.46788 3.12389,13.76786 -5.21807,18.47686 -7.48891,4.2276 -23.88739,6.5964 -35.97043,5.1961 z m 12.10699,-48.48871 c -0.33385,-0.86998 -0.60699,-1.99498 -0.60699,-2.5 0,-2.32487 -4.17148,-4.91821 -7.91111,-4.91821 -3.13971,0 -4.42171,0.60682 -6.5,3.07672 -4.44323,5.28049 -3.73589,5.92328 6.5181,5.92328 7.89354,0 9.02611,-0.21076 8.5,-1.58179 z m 60.19978,48.55631 c -3.13127,-0.4886 -8.35871,-2.2339 -11.61652,-3.8785 -11.46192,-5.7859 -14.36372,-13.12255 -7.79025,-19.69602 4.25568,-4.25568 9.38126,-4.70775 20.74434,-1.82964 3.10439,0.7863 7.71689,1.42964 10.25,1.42964 3.89231,0 4.60566,-0.30063 4.60566,-1.94098 0,-2.5238 -0.10031,-2.57441 -12.18649,-6.14806 -5.67243,-1.67723 -12.21405,-4.15529 -14.53693,-5.50681 -11.6847,-6.79849 -12.82248,-23.87691 -2.1869,-32.82616 7.42531,-6.24799 15.60547,-8.77886 28.18145,-8.71911 14.51857,0.069 25.64562,4.3043 28.35702,10.79359 1.20312,2.87946 1.19809,3.82764 -0.036,6.78111 -1.5847,3.79271 -5.95049,6.57296 -10.29254,6.55455 -1.53976,-0.007 -5.27461,-0.67619 -8.29961,-1.48813 -6.40392,-1.71889 -14.5979,-1.95963 -15.52707,-0.4562 -1.2493,2.02142 1.87164,3.99687 10.4053,6.58621 19.14041,5.80771 26.42807,12.83385 26.44678,25.49774 0.015,10.15907 -8.12647,19.71607 -19.82501,23.27187 -6.41067,1.9485 -19.39109,2.7144 -26.69323,1.5749 z M 293.5,1015.8204 c -4.90416,-1.6851 -9.02723,-6.0936 -10.4327,-11.1549 -0.58088,-2.0918 -1.05866,-12.00725 -1.06172,-22.03427 L 282,964.40028 l -2.75,-0.58042 c -4.40038,-0.92876 -7.57937,-3.01054 -10.0883,-6.60638 -5.14334,-7.37153 0.0306,-17.66699 9.65157,-19.20545 L 283,937.33854 l 0,-5.84029 c 0,-9.75063 6.22234,-16.30274 15.4822,-16.30274 8.86406,0 15.5178,7.26103 15.5178,16.93411 l 0,4.99513 4.41643,1.11207 c 5.05653,1.27325 10.0931,5.7793 10.8427,9.7006 0.71825,3.75726 -1.00427,9.2608 -3.7614,12.01794 -1.28576,1.28576 -4.39874,2.8567 -6.91773,3.49099 l -4.58,1.15326 0,19.56556 c 0,17.74523 -0.19268,19.96363 -2.07095,23.84353 -3.43997,7.1061 -11.07013,10.3403 -18.42905,7.8117 z m 48.1838,0.053 c -2.0989,-0.7267 -4.73247,-2.1505 -5.85238,-3.164 C 330.9959,1008.3335 331,1008.379 331,959.05972 l 0,-46.40177 2.2534,-3.34382 c 3.09688,-4.59547 7.79206,-7.11862 13.2466,-7.11862 5.79557,0 10.37142,2.67033 13.23299,7.7224 2.22162,3.92222 2.23411,4.19865 2.23411,49.44427 0,45.24562 -0.0125,45.52202 -2.23411,49.44422 -3.72172,6.5707 -11.11834,9.4668 -18.04919,7.0672 z"
       id="path7096"
       inkscape:connector-curvature="0" />
    <path
       style="fill:#925e36;stroke:none;stroke-width:1px;stroke-linecap:butt;stroke-linejoin:miter;stroke-opacity:1;fill-opacity:1"
       d="m 222.45,114.95222 c -6.52317,-0.82794 -15.33087,-4.57709 -19.67003,-8.37288 -5.86555,-5.13104 -5.98213,-10.599652 -0.33199,-15.573107 4.03722,-3.5537 7.08455,-3.774745 19.00202,-1.378355 7.37935,1.48386 12.02794,1.942895 14,1.382475 1.17984,-0.33529 1.53186,-0.74485 1.64926,-1.918865 0.0954,-0.954395 -0.17499,-1.78113 -0.75,-2.292805 C 235.85467,86.358558 232.075,84.941132 227.95,83.64884 215.18499,79.64978 210.56425,77.65925 207.45997,74.822116 205.6707,73.186819 204.1577,71.171156 203.08706,68.99636 201.55209,65.878401 201.45,65.342968 201.45,60.410512 c 0,-4.890452 0.11354,-5.500223 1.61395,-8.668036 2.84733,-6.011548 9.27315,-11.063631 17.31676,-13.614717 10.33528,-3.277902 28.27554,-2.307206 36.75289,1.988592 4.90805,2.487093 8.02767,6.346627 8.05542,9.965983 0.0159,2.072319 -2.23408,5.85693 -4.39482,7.392425 -3.85888,2.742249 -5.59895,2.789362 -16.5942,0.449296 -5.13175,-1.092165 -11.47769,-1.338772 -13.03287,-0.506465 -0.53192,0.284676 -0.96713,0.920455 -0.96713,1.412843 0,1.806474 2.48537,3.180837 11.32597,6.263056 10.32999,3.601489 14.93861,5.883317 18.75805,9.287531 5.1619,4.600717 7.80124,12.254703 6.49531,18.836108 -2.06422,10.402972 -11.59158,18.807332 -23.69411,20.901282 -5.24585,0.90762 -16.47789,1.36148 -20.63522,0.83381 z"
       id="path8460"
       inkscape:connector-curvature="0"
       transform="translate(0,901.36218)" />
    <path
       style="fill:#925e36;fill-opacity:1"
       d="M 12.641141,114.23461 C 8.513785,112.70288 5.109486,109.74698 3.1989514,106.03611 1.5826564,102.89675 1.2383501,95.400113 1.2292757,63.149998 1.2212256,34.540191 1.6378078,22.642448 2.7812124,18.826104 4.6547995,12.572627 13.919925,8.7940806 21.778373,11.078593 c 2.416624,0.702532 3.320203,1.389908 7.473496,5.685279 2.598479,2.687369 8.648605,9.386126 13.444726,14.886126 4.796121,5.5 11.765185,13.46286 15.48681,17.695245 3.72163,4.232384 7.289155,8.338634 7.927835,9.125 0.63868,0.786365 1.449895,1.429755 1.802695,1.429755 0.948715,0 1.277885,-4.926109 1.286305,-19.25 0.01145,-19.463888 0.63139,-22.580288 5.311375,-26.699779 2.985325,-2.627788 8.0924,-4.3193148 11.7375,-3.887606 5.06797,0.600225 10.660535,4.464501 12.52649,8.655388 1.597435,3.587797 1.906945,10.579947 1.911455,43.181997 0.004,33.019065 -0.36245,41.693762 -1.9122,45.197182 -1.090825,2.46597 -3.944275,5.07923 -7.049455,6.45608 -2.794495,1.2391 -8.500135,1.66719 -11.480275,0.86137 C 76.582975,113.4244 72.22519,108.83798 52.20182,84.899998 38.62816,68.672658 34.17118,63.728818 33.616027,64.283973 33.374281,64.525718 32.961998,72.806968 32.699842,82.686753 32.437687,92.566538 32.091828,101.775 31.931268,103.15 c -0.500386,4.28519 -3.305431,8.03207 -7.731268,10.32717 -2.726629,1.41394 -8.729873,1.80733 -11.558859,0.75744 z"
       id="path8462"
       inkscape:connector-curvature="0"
       transform="translate(0,901.36218)" />
    <path
       style="fill:#d18400;fill-opacity:1"
       d="m 293.54899,114.20804 c -4.10723,-1.52985 -7.04603,-4.28316 -9.30438,-8.71709 -1.44559,-2.83821 -2.00344,-10.804637 -2.02696,-28.946682 L 282.2,62.938542 280.075,62.394823 c -3.80269,-0.972989 -5.00748,-1.477313 -6.83049,-2.859262 -5.68679,-4.310903 -7.2709,-10.07829 -4.27836,-15.576563 2.33465,-4.289532 6.02357,-6.598698 11.75637,-7.359181 l 2.47748,-0.328649 0,-4.080536 c 0,-10.000865 3.73716,-15.654942 11.63575,-17.604113 2.79164,-0.688907 3.83307,-0.730638 6.23295,-0.249759 7.92078,1.587138 12.6313,8.188556 12.6313,17.701768 l 0,3.822926 2.125,0.54372 c 1.16875,0.299046 2.8,0.762787 3.625,1.030537 2.46279,0.799287 6.55335,3.876645 8.07563,6.075359 1.21769,1.758773 1.42418,2.540302 1.42308,5.386 -0.003,6.935507 -3.90459,11.330626 -11.77033,13.258225 l -3.47838,0.852423 0,17.85431 c 0,18.88272 -0.28359,22.157452 -2.25589,26.049592 -1.26572,2.49778 -4.21221,5.425 -6.83924,6.79452 -2.21632,1.1554 -8.5317,1.4421 -11.05588,0.5019 z"
       id="path8464"
       inkscape:connector-curvature="0"
       transform="translate(0,901.36218)" />
    <path
       style="fill:#d18400;fill-opacity:1"
       d="m 146.24544,114.42595 c -21.69228,-3.96686 -35.00379,-17.830317 -36.30111,-37.80628 -1.21632,-18.728756 11.22975,-34.396916 31.23296,-39.318675 5.69084,-1.400222 16.22468,-1.514758 21.10845,-0.229515 9.10048,2.394938 18.90187,9.315499 24.65408,17.407744 5.64216,7.937421 7.28711,17.875228 4.07812,24.637659 -1.75492,3.698233 -1.6574,3.684641 -33.59494,4.682316 -7.21201,0.225291 -13.27905,0.575927 -13.48232,0.779192 -0.71481,0.714815 0.67599,2.086882 3.62038,3.571607 2.89126,1.457935 3.20603,1.50459 11.22468,1.66365 6.42903,0.127525 9.76386,-0.06343 15.10859,-0.86517 7.94608,-1.19195 10.89622,-0.910055 14.13717,1.350855 8.0397,5.608555 4.17306,16.549577 -7.35946,20.824277 -6.58008,2.43901 -12.36473,3.34358 -22.6363,3.53974 -5.225,0.0998 -10.53064,-0.007 -11.7903,-0.2374 z m 12.2903,-46.449955 2,-0.366374 -0.14787,-2.227479 c -0.0813,-1.225114 -0.46341,-2.709061 -0.84908,-3.29766 -1.14807,-1.752177 -4.71585,-3.184484 -7.93233,-3.184484 -2.70772,0 -2.99558,0.123487 -5.28938,2.269069 -4.33694,4.056702 -4.46736,6.4943 -0.3674,6.866732 3.79318,0.344563 10.55403,0.312438 12.58606,-0.0598 z"
       id="path8466"
       inkscape:connector-curvature="0"
       transform="translate(0,901.36218)" />
    <path
       style="fill:#d18400;fill-opacity:1"
       d="m 339.35141,113.11465 c -2.15174,-1.07646 -4.09633,-2.47711 -4.89759,-3.52761 -2.89536,-3.79601 -2.84121,-2.86165 -3.04592,-52.560687 l -0.18793,-45.623642 2.08104,-2.9667271 c 3.49227,-4.9785794 7.62631,-7.2157088 13.31403,-7.2048706 5.92485,0.01129 10.46003,2.8566014 13.24191,8.3077871 0.79516,1.5581426 1.18129,3.5517016 1.47421,7.6110976 0.54983,7.619772 0.53293,74.68274 -0.0206,81.82896 -0.50211,6.482152 -1.00124,7.828032 -4.19222,11.303982 -2.93808,3.20048 -6.18078,4.60605 -10.64041,4.61217 -3.08533,0.004 -4.03175,-0.23221 -7.12651,-1.78046 z"
       id="path8468"
       inkscape:connector-curvature="0"
       transform="translate(0,901.36218)" />
    <path
       style="fill:#925e36;fill-opacity:1"
       d="m 291.91624,113.12139 c -2.86377,-1.42709 -5.56848,-4.15959 -7.11195,-7.18504 -1.5832,-3.10331 -2.05446,-8.227202 -2.42571,-26.374002 l -0.34284,-16.757796 -3.63801,-1.152707 c -8.45379,-2.678594 -12.63191,-9.991028 -9.57153,-16.751847 1.95097,-4.309985 5.6343,-6.927044 11.19647,-7.955268 1.6207,-0.299602 2.98392,-0.544732 3.02937,-0.544732 0.0455,0 0.21773,-2.19375 0.38283,-4.875 0.4034,-6.551041 1.50945,-9.781998 4.3409,-12.680455 6.63862,-6.795715 18.18891,-5.517186 23.08613,2.555455 1.47191,2.426314 2.05015,4.802752 2.36032,9.700479 l 0.31352,4.95048 3.34771,0.915271 c 7.07291,1.933753 11.90229,6.551736 11.90229,11.381289 0,4.113862 -1.00191,6.621908 -3.71531,9.300398 -2.47924,2.447352 -4.43625,3.410631 -9.62411,4.737192 l -2.08943,0.534276 -0.18825,19.865305 c -0.21955,23.167882 -0.18876,22.993332 -4.88312,27.692582 -3.23734,3.24072 -5.00708,3.91577 -10.27661,3.91994 -2.78452,0.002 -4.06687,-0.26633 -6.09267,-1.27582 z"
       id="path8470"
       inkscape:connector-curvature="0"
       transform="translate(0,901.36218)" />
    <path
       style="fill:#f8b332;fill-opacity:1"
       d="m 218.28574,113.88033 c -2.0625,-0.53054 -6.01052,-2.07931 -8.77339,-3.44172 -12.07065,-5.95223 -14.29166,-13.563897 -5.8454,-20.032902 2.02005,-1.54716 2.67923,-1.76458 5.83276,-1.923825 2.41224,-0.12181 5.88319,0.25361 10.79567,1.16767 9.82363,1.827865 15.01082,2.15856 16.1404,1.028975 1.36811,-1.36811 1.0691,-3.159965 -0.70761,-4.240445 -0.85667,-0.52097 -5.7052,-2.320387 -10.7745,-3.998704 -11.3587,-3.760569 -15.1907,-5.640941 -18.32561,-8.992406 -3.84726,-4.113041 -4.83161,-6.779682 -4.83743,-13.104796 -0.005,-5.085191 0.0696,-5.456627 1.76996,-8.855535 3.11744,-6.231396 10.87243,-11.814724 19.22515,-13.841459 8.02966,-1.948347 22.99415,-1.317576 30.88382,1.301789 6.04098,2.005601 10.53348,6.129443 10.97849,10.077597 0.55971,4.965733 -4.66959,10.375429 -10.02944,10.375429 -0.93459,0 -4.68438,-0.5625 -8.33287,-1.25 -7.13122,-1.343765 -14.39946,-1.650541 -15.4,-0.65 -1.07589,1.075887 -0.65293,2.610172 1.02842,3.730633 0.89187,0.594349 5.33408,2.46299 9.87158,4.152536 15.16421,5.64642 19.48047,8.552787 22.86151,15.393871 1.80598,3.654145 1.88849,4.040691 1.88849,8.84703 0,4.59517 -0.13337,5.30448 -1.55615,8.27593 -3.35416,7.005152 -9.53118,12.299452 -17.16293,14.710322 -7.57882,2.39415 -22.64227,3.04197 -29.53092,1.27001 z"
       id="path8472"
       inkscape:connector-curvature="0"
       transform="translate(0,901.36218)" />
    <path
       style="fill:#f8b332;fill-opacity:1;stroke:#ffffff;stroke-opacity:1"
       d="m 386.60797,148.9049 c -7.76644,-3.03368 -10.84164,-9.18427 -8.5193,-17.03915 0.4416,-1.49366 2.99741,-7.32825 5.67957,-12.96575 2.68216,-5.6375 5.01611,-10.64982 5.18655,-11.13848 0.39217,-1.12431 -0.89077,-4.33498 -10.50686,-26.294389 -9.85987,-22.51612 -11.79197,-27.564983 -11.79936,-30.83355 -0.0114,-5.026124 3.46209,-10.068632 8.75882,-12.715441 2.59324,-1.295858 3.59375,-1.516534 6.83321,-1.507161 8.30434,0.02403 11.20146,3.436447 17.81951,20.989019 2.27952,6.045782 4.99497,12 5.47267,12 0.52997,0 2.32987,-4.312604 5.7387,-13.75 5.63629,-15.604185 6.86365,-17.339364 13.45786,-19.026084 10.41166,-2.663177 20.54162,6.220517 18.4281,16.160928 -0.92475,4.349303 -9.05473,23.693574 -25.26513,60.115158 -13.29066,29.86152 -13.86917,31.04101 -16.34543,33.32606 -3.90292,3.60155 -9.84765,4.66756 -14.93891,2.67884 z"
       id="path8474"
       inkscape:connector-curvature="0"
       transform="translate(0,901.36218)" />
  </g>
</svg>
